<svg xmlns="http://www.w3.org/2000/svg" viewBox="0 0 64 64" role="img" aria-label="MAREAS (IHM)">
  <rect width="64" height="64" rx="14" fill="#04384a"/>

  <!-- Sea -->
  <path d="M6 42c8-9 18-13 30-13 10 0 18 4 22 9v14H6V42z" fill="#0b5d8a" opacity="0.98"/>
  <path d="M9 45c8-7 16-10 27-10 9 0 16 3 20 7" fill="none" stroke="#a7f1ff" stroke-width="3.4" stroke-linecap="round" opacity="0.88"/>

  <!-- Island + beach -->
  <path d="M18 43c4-6 10-10 16-10 7 0 12 4 14 10" fill="#1c6b57" opacity="0.97"/>
  <path d="M16 46c6-3 12-5 20-5 8 0 14 2 20 5" fill="#ffd166" opacity="0.90"/>

  <!-- Lighthouse -->
  <g transform="translate(31 18)">
    <path d="M-5 19h10l-2-16h-6l-2 16z" fill="#ffffff" opacity="0.97"/>
    <rect x="-6" y="19" width="12" height="4" fill="#444" opacity="0.92"/>
    <rect x="-4" y="9" width="8" height="4" fill="#dc3545" opacity="0.96"/>
    <rect x="-3" y="4" width="6" height="5" fill="#b8e4f5" stroke="#666" stroke-width="0.6"/>
    <polygon points="-4,4 4,4 0,-2" fill="#dc3545"/>

    <!-- Light beams -->
    <path d="M3 3 L18 -1" stroke="#ffd166" stroke-width="2.6" stroke-linecap="round" opacity="0.86"/>
    <path d="M3 5 L18 5" stroke="#ffd166" stroke-width="2.6" stroke-linecap="round" opacity="0.65"/>
  </g>

  <!-- Small star (forces cache bust visually) -->
  <path d="M14 14l1.2 2.4 2.6.4-1.9 1.8.5 2.6-2.4-1.3-2.4 1.3.5-2.6-1.9-1.8 2.6-.4z" fill="#a7f1ff" opacity="0.75"/>
</svg>