<svg xmlns="http://www.w3.org/2000/svg" viewBox="0 0 64 64" role="img" aria-label="MAREAS (IHM)">
  <rect x="0" y="0" width="64" height="64" rx="14" fill="#04384a"/>
  <!-- sun -->
  <circle cx="48" cy="18" r="6" fill="#ffd166"/>
  <!-- island -->
  <path d="M18 40c6-6 16-6 22 0" fill="#0e6b4f"/>
  <path d="M12 42c10-8 30-8 40 0v6H12z" fill="#0e6b4f"/>
  <!-- lighthouse -->
  <rect x="28" y="24" width="8" height="18" rx="2" fill="#ffffff"/>
  <rect x="27" y="22" width="10" height="4" rx="2" fill="#ff4b4b"/>
  <path d="M32 18l6 4H26z" fill="#ffffff"/>
  <!-- waves -->
  <path d="M10 50c4 0 4-2 8-2s4 2 8 2 4-2 8-2 4 2 8 2 4-2 8-2" fill="none" stroke="#1aa6b7" stroke-width="4" stroke-linecap="round"/>
  <path d="M10 56c4 0 4-2 8-2s4 2 8 2 4-2 8-2 4 2 8 2 4-2 8-2" fill="none" stroke="#1aa6b7" stroke-width="4" stroke-linecap="round" opacity="0.9"/>
</svg>
